STARTFONT 2.1
COMMENT  (c) Copyright Bigelow & Holmes 1986, 1985. Lucida is a registered
COMMENT  trademark of Bigelow & Holmes. See LEGAL NOTICE file for terms 
COMMENT  of the license. 
FONT -B&H-LucidaBright-DemiBold-R-Normal--11-80-100-100-P-66-ISO8859-1
SIZE 8 100 100
FONTBOUNDINGBOX 19 13 -6 -2
STARTPROPERTIES 19
COMMENT Begin LogicalFontDescription
FONTNAME_REGISTRY ""
FOUNDRY "B&H"
FAMILY_NAME "LucidaBright"
WEIGHT_NAME "DemiBold"
SLANT "R"
SETWIDTH_NAME "Normal"
ADD_STYLE_NAME ""
PIXEL_SIZE 11
POINT_SIZE 80
RESOLUTION_X 100
RESOLUTION_Y 100
SPACING "P"
AVERAGE_WIDTH 66
CHARSET_REGISTRY "ISO8859"
CHARSET_ENCODING "1"
COMMENT END LogicalFontDescription
FONT_ASCENT 10
FONT_DESCENT 3
DEFAULT_CHAR 32
COPYRIGHT "Copyright Bigelow & Holmes 1986, 1985."
ENDPROPERTIES
CHARS 228
STARTCHAR space
ENCODING 32
SWIDTH 42 0
DWIDTH 4 0
BBX 1 1 0 0
BITMAP
00
ENDCHAR
STARTCHAR exclam
ENCODING 33
SWIDTH 42 0
DWIDTH 3 0
BBX 2 9 0 0
BITMAP
C0
C0
C0
C0
40
40
00
C0
C0
ENDCHAR
STARTCHAR quotedbl
ENCODING 34
SWIDTH 42 0
DWIDTH 5 0
BBX 5 4 0 5
BITMAP
D8
D8
50
50
ENDCHAR
STARTCHAR numbersign
ENCODING 35
SWIDTH 42 0
DWIDTH 7 0
BBX 7 9 0 0
BITMAP
14
24
7E
28
28
FC
48
50
50
ENDCHAR
STARTCHAR dollar
ENCODING 36
SWIDTH 42 0
DWIDTH 7 0
BBX 5 10 1 -1
BITMAP
78
E8
E0
60
30
38
38
B8
F0
20
ENDCHAR
STARTCHAR percent
ENCODING 37
SWIDTH 42 0
DWIDTH 8 0
BBX 8 9 0 0
BITMAP
63
F2
F4
F8
78
16
2F
4F
C6
ENDCHAR
STARTCHAR ampersand
ENCODING 38
SWIDTH 42 0
DWIDTH 8 0
BBX 8 9 0 0
BITMAP
38
6C
6C
30
73
DA
CE
EE
7F
ENDCHAR
STARTCHAR quoteright
ENCODING 39
SWIDTH 42 0
DWIDTH 3 0
BBX 2 4 0 5
BITMAP
C0
C0
C0
C0
ENDCHAR
STARTCHAR parenleft
ENCODING 40
SWIDTH 42 0
DWIDTH 4 0
BBX 3 11 0 -2
BITMAP
20
40
40
C0
C0
C0
C0
C0
40
40
20
ENDCHAR
STARTCHAR parenright
ENCODING 41
SWIDTH 42 0
DWIDTH 4 0
BBX 3 11 0 -2
BITMAP
80
40
40
60
60
60
60
60
40
40
80
ENDCHAR
STARTCHAR asterisk
ENCODING 42
SWIDTH 42 0
DWIDTH 5 0
BBX 4 4 0 5
BITMAP
60
F0
E0
70
ENDCHAR
STARTCHAR plus
ENCODING 43
SWIDTH 42 0
DWIDTH 7 0
BBX 7 8 0 0
BITMAP
10
10
10
10
FE
10
10
10
ENDCHAR
STARTCHAR comma
ENCODING 44
SWIDTH 42 0
DWIDTH 3 0
BBX 2 4 0 -2
BITMAP
C0
C0
C0
C0
ENDCHAR
STARTCHAR minus
ENCODING 45
SWIDTH 42 0
DWIDTH 7 0
BBX 6 1 0 3
BITMAP
FC
ENDCHAR
STARTCHAR period
ENCODING 46
SWIDTH 42 0
DWIDTH 3 0
BBX 2 2 0 0
BITMAP
C0
C0
ENDCHAR
STARTCHAR slash
ENCODING 47
SWIDTH 42 0
DWIDTH 6 0
BBX 6 11 0 -2
BITMAP
04
08
08
10
10
30
20
20
40
40
80
ENDCHAR
STARTCHAR zero
ENCODING 48
SWIDTH 42 0
DWIDTH 7 0
BBX 6 9 0 0
BITMAP
30
48
CC
CC
CC
CC
CC
48
30
ENDCHAR
STARTCHAR one
ENCODING 49
SWIDTH 42 0
DWIDTH 7 0
BBX 4 9 2 0
BITMAP
E0
60
60
60
60
60
60
60
F0
ENDCHAR
STARTCHAR two
ENCODING 50
SWIDTH 42 0
DWIDTH 7 0
BBX 6 9 0 0
BITMAP
F8
8C
0C
0C
18
20
40
FC
FC
ENDCHAR
STARTCHAR three
ENCODING 51
SWIDTH 42 0
DWIDTH 7 0
BBX 6 9 0 0
BITMAP
F8
8C
0C
08
70
1C
0C
8C
F8
ENDCHAR
STARTCHAR four
ENCODING 52
SWIDTH 42 0
DWIDTH 7 0
BBX 7 9 0 0
BITMAP
0C
1C
2C
4C
FE
FE
0C
0C
1E
ENDCHAR
STARTCHAR five
ENCODING 53
SWIDTH 42 0
DWIDTH 7 0
BBX 5 9 1 0
BITMAP
F8
F8
80
80
F0
38
18
98
F0
ENDCHAR
STARTCHAR six
ENCODING 54
SWIDTH 42 0
DWIDTH 7 0
BBX 6 9 0 0
BITMAP
3C
64
C0
F8
CC
CC
CC
4C
38
ENDCHAR
STARTCHAR seven
ENCODING 55
SWIDTH 42 0
DWIDTH 7 0
BBX 5 9 1 0
BITMAP
F8
F8
10
10
20
60
40
C0
C0
ENDCHAR
STARTCHAR eight
ENCODING 56
SWIDTH 42 0
DWIDTH 7 0
BBX 6 9 0 0
BITMAP
78
CC
CC
68
38
CC
CC
CC
78
ENDCHAR
STARTCHAR nine
ENCODING 57
SWIDTH 42 0
DWIDTH 7 0
BBX 6 9 0 0
BITMAP
70
C8
CC
CC
CC
7C
0C
98
F0
ENDCHAR
STARTCHAR colon
ENCODING 58
SWIDTH 42 0
DWIDTH 3 0
BBX 2 6 0 0
BITMAP
C0
C0
00
00
C0
C0
ENDCHAR
STARTCHAR semicolon
ENCODING 59
SWIDTH 42 0
DWIDTH 3 0
BBX 2 8 0 -2
BITMAP
C0
C0
00
00
C0
C0
C0
80
ENDCHAR
STARTCHAR less
ENCODING 60
SWIDTH 42 0
DWIDTH 7 0
BBX 6 8 0 0
BITMAP
04
0C
30
C0
40
30
08
04
ENDCHAR
STARTCHAR equal
ENCODING 61
SWIDTH 42 0
DWIDTH 7 0
BBX 6 3 0 2
BITMAP
FC
00
FC
ENDCHAR
STARTCHAR greater
ENCODING 62
SWIDTH 42 0
DWIDTH 7 0
BBX 6 8 0 0
BITMAP
80
C0
30
18
0C
30
40
80
ENDCHAR
STARTCHAR question
ENCODING 63
SWIDTH 42 0
DWIDTH 6 0
BBX 5 9 0 0
BITMAP
F0
98
18
10
20
60
60
60
60
ENDCHAR
STARTCHAR at
ENCODING 64
SWIDTH 42 0
DWIDTH 9 0
BBX 9 9 1 0
BITMAP
1E00
2100
5880
9E80
B280
B680
BB80
4000
3E00
ENDCHAR
STARTCHAR A
ENCODING 65
SWIDTH 42 0
DWIDTH 9 0
BBX 9 9 0 0
BITMAP
0800
1C00
1C00
3E00
2600
3F00
4300
4300
C380
ENDCHAR
STARTCHAR B
ENCODING 66
SWIDTH 42 0
DWIDTH 7 0
BBX 6 9 0 0
BITMAP
F8
6C
6C
68
70
6C
6C
6C
F8
ENDCHAR
STARTCHAR C
ENCODING 67
SWIDTH 42 0
DWIDTH 8 0
BBX 7 9 0 0
BITMAP
3E
62
C0
C0
C0
C0
C0
62
3E
ENDCHAR
STARTCHAR D
ENCODING 68
SWIDTH 42 0
DWIDTH 9 0
BBX 8 9 0 0
BITMAP
FC
66
63
63
63
63
63
66
FC
ENDCHAR
STARTCHAR E
ENCODING 69
SWIDTH 42 0
DWIDTH 7 0
BBX 6 9 0 0
BITMAP
FC
64
60
68
78
68
60
64
FC
ENDCHAR
STARTCHAR F
ENCODING 70
SWIDTH 42 0
DWIDTH 6 0
BBX 6 9 0 0
BITMAP
FC
64
60
68
78
68
60
60
E0
ENDCHAR
STARTCHAR G
ENCODING 71
SWIDTH 42 0
DWIDTH 8 0
BBX 8 9 0 0
BITMAP
3E
62
C0
C0
C0
CF
C6
66
3E
ENDCHAR
STARTCHAR H
ENCODING 72
SWIDTH 42 0
DWIDTH 9 0
BBX 9 9 0 0
BITMAP
F780
6300
6300
6300
7F00
6300
6300
6300
F780
ENDCHAR
STARTCHAR I
ENCODING 73
SWIDTH 42 0
DWIDTH 4 0
BBX 4 9 0 0
BITMAP
F0
60
60
60
60
60
60
60
F0
ENDCHAR
STARTCHAR J
ENCODING 74
SWIDTH 42 0
DWIDTH 5 0
BBX 5 11 0 -2
BITMAP
78
30
30
30
30
30
30
30
30
B0
E0
ENDCHAR
STARTCHAR K
ENCODING 75
SWIDTH 42 0
DWIDTH 8 0
BBX 8 9 0 0
BITMAP
F2
66
6C
78
78
7C
6E
66
F7
ENDCHAR
STARTCHAR L
ENCODING 76
SWIDTH 42 0
DWIDTH 6 0
BBX 7 9 0 0
BITMAP
F0
60
60
60
60
60
60
62
FE
ENDCHAR
STARTCHAR M
ENCODING 77
SWIDTH 42 0
DWIDTH 10 0
BBX 10 9 0 0
BITMAP
E1C0
7180
7380
7380
5D80
5D80
4D80
4980
E3C0
ENDCHAR
STARTCHAR N
ENCODING 78
SWIDTH 42 0
DWIDTH 9 0
BBX 8 9 0 0
BITMAP
E7
62
72
72
5A
5E
4E
46
E6
ENDCHAR
STARTCHAR O
ENCODING 79
SWIDTH 42 0
DWIDTH 9 0
BBX 8 9 0 0
BITMAP
3C
66
C3
C3
C3
C3
C3
66
3C
ENDCHAR
STARTCHAR P
ENCODING 80
SWIDTH 42 0
DWIDTH 7 0
BBX 6 9 0 0
BITMAP
F8
6C
6C
6C
78
60
60
60
F0
ENDCHAR
STARTCHAR Q
ENCODING 81
SWIDTH 42 0
DWIDTH 9 0
BBX 9 11 1 -2
BITMAP
3C00
6600
C300
C300
C300
C300
C300
6600
3C00
0780
0100
ENDCHAR
STARTCHAR R
ENCODING 82
SWIDTH 42 0
DWIDTH 8 0
BBX 7 9 1 0
BITMAP
F8
6C
6C
6C
78
78
6C
6E
FE
ENDCHAR
STARTCHAR S
ENCODING 83
SWIDTH 42 0
DWIDTH 6 0
BBX 6 9 0 0
BITMAP
78
C8
C0
E0
78
1C
0C
8C
F8
ENDCHAR
STARTCHAR T
ENCODING 84
SWIDTH 42 0
DWIDTH 8 0
BBX 8 9 0 0
BITMAP
FF
99
18
18
18
18
18
18
3C
ENDCHAR
STARTCHAR U
ENCODING 85
SWIDTH 42 0
DWIDTH 8 0
BBX 8 9 0 0
BITMAP
F7
62
62
62
62
62
62
62
3C
ENDCHAR
STARTCHAR V
ENCODING 86
SWIDTH 42 0
DWIDTH 8 0
BBX 8 9 0 0
BITMAP
E3
62
62
72
34
34
1C
18
18
ENDCHAR
STARTCHAR W
ENCODING 87
SWIDTH 42 0
DWIDTH 10 0
BBX 11 9 0 0
BITMAP
E660
6640
6640
6E40
7B80
3B80
3380
3100
1100
ENDCHAR
STARTCHAR X
ENCODING 88
SWIDTH 42 0
DWIDTH 8 0
BBX 8 9 0 0
BITMAP
F3
62
36
3C
18
2C
6E
46
CF
ENDCHAR
STARTCHAR Y
ENCODING 89
SWIDTH 42 0
DWIDTH 8 0
BBX 8 9 0 0
BITMAP
E3
62
72
34
38
18
18
18
3C
ENDCHAR
STARTCHAR Z
ENCODING 90
SWIDTH 42 0
DWIDTH 7 0
BBX 6 9 0 0
BITMAP
FC
8C
18
38
30
70
60
C4
FC
ENDCHAR
STARTCHAR bracketleft
ENCODING 91
SWIDTH 42 0
DWIDTH 4 0
BBX 3 11 0 -2
BITMAP
E0
C0
C0
C0
C0
C0
C0
C0
C0
C0
E0
ENDCHAR
STARTCHAR backslash
ENCODING 92
SWIDTH 42 0
DWIDTH 6 0
BBX 6 11 0 -2
BITMAP
80
40
40
20
20
30
10
10
08
08
04
ENDCHAR
STARTCHAR bracketright
ENCODING 93
SWIDTH 42 0
DWIDTH 4 0
BBX 3 11 0 -2
BITMAP
E0
60
60
60
60
60
60
60
60
60
E0
ENDCHAR
STARTCHAR asciicircum
ENCODING 94
SWIDTH 42 0
DWIDTH 7 0
BBX 6 8 0 1
BITMAP
10
30
30
30
48
48
C4
84
ENDCHAR
STARTCHAR underscore
ENCODING 95
SWIDTH 42 0
DWIDTH 5 0
BBX 5 1 0 -1
BITMAP
F8
ENDCHAR
STARTCHAR quoteleft
ENCODING 96
SWIDTH 42 0
DWIDTH 3 0
BBX 2 4 0 5
BITMAP
C0
C0
C0
C0
ENDCHAR
STARTCHAR a
ENCODING 97
SWIDTH 42 0
DWIDTH 6 0
BBX 6 6 0 0
BITMAP
70
18
F8
D8
D8
6C
ENDCHAR
STARTCHAR b
ENCODING 98
SWIDTH 42 0
DWIDTH 7 0
BBX 7 9 0 0
BITMAP
E0
60
60
6C
7E
66
66
66
7C
ENDCHAR
STARTCHAR c
ENCODING 99
SWIDTH 42 0
DWIDTH 6 0
BBX 5 6 0 0
BITMAP
78
C8
C0
C0
E0
78
ENDCHAR
STARTCHAR d
ENCODING 100
SWIDTH 42 0
DWIDTH 7 0
BBX 7 9 0 0
BITMAP
1C
0C
0C
7C
CC
CC
CC
FC
6E
ENDCHAR
STARTCHAR e
ENCODING 101
SWIDTH 42 0
DWIDTH 6 0
BBX 5 6 0 0
BITMAP
70
D8
F8
C0
E0
78
ENDCHAR
STARTCHAR f
ENCODING 102
SWIDTH 42 0
DWIDTH 5 0
BBX 5 9 0 0
BITMAP
38
68
60
F0
60
60
60
60
F0
ENDCHAR
STARTCHAR g
ENCODING 103
SWIDTH 42 0
DWIDTH 7 0
BBX 6 8 0 -2
BITMAP
7C
D8
D8
70
FC
7C
CC
F8
ENDCHAR
STARTCHAR h
ENCODING 104
SWIDTH 42 0
DWIDTH 7 0
BBX 7 9 0 0
BITMAP
E0
60
60
6C
7C
6C
6C
6C
FE
ENDCHAR
STARTCHAR i
ENCODING 105
SWIDTH 42 0
DWIDTH 4 0
BBX 4 9 0 0
BITMAP
60
60
00
E0
60
60
60
60
F0
ENDCHAR
STARTCHAR j
ENCODING 106
SWIDTH 42 0
DWIDTH 4 0
BBX 4 11 0 -2
BITMAP
30
30
00
70
30
30
30
30
30
B0
F0
ENDCHAR
STARTCHAR k
ENCODING 107
SWIDTH 42 0
DWIDTH 7 0
BBX 7 9 0 0
BITMAP
E0
60
60
64
6C
78
78
6C
FE
ENDCHAR
STARTCHAR l
ENCODING 108
SWIDTH 42 0
DWIDTH 4 0
BBX 4 9 0 0
BITMAP
E0
60
60
60
60
60
60
60
F0
ENDCHAR
STARTCHAR m
ENCODING 109
SWIDTH 42 0
DWIDTH 11 0
BBX 10 6 0 0
BITMAP
E980
7F80
6D80
6D80
6D80
FFC0
ENDCHAR
STARTCHAR n
ENCODING 110
SWIDTH 42 0
DWIDTH 7 0
BBX 7 6 0 0
BITMAP
EC
7C
6C
6C
6C
FE
ENDCHAR
STARTCHAR o
ENCODING 111
SWIDTH 42 0
DWIDTH 7 0
BBX 6 6 0 0
BITMAP
78
CC
CC
CC
CC
78
ENDCHAR
STARTCHAR p
ENCODING 112
SWIDTH 42 0
DWIDTH 7 0
BBX 7 8 0 -2
BITMAP
EC
7E
66
66
66
7C
60
F0
ENDCHAR
STARTCHAR q
ENCODING 113
SWIDTH 42 0
DWIDTH 7 0
BBX 7 8 0 -2
BITMAP
7C
CC
CC
CC
FC
6C
0C
1E
ENDCHAR
STARTCHAR r
ENCODING 114
SWIDTH 42 0
DWIDTH 5 0
BBX 5 6 0 0
BITMAP
E8
78
60
60
60
F0
ENDCHAR
STARTCHAR s
ENCODING 115
SWIDTH 42 0
DWIDTH 6 0
BBX 5 6 0 0
BITMAP
70
D0
F0
78
98
F0
ENDCHAR
STARTCHAR t
ENCODING 116
SWIDTH 42 0
DWIDTH 4 0
BBX 4 9 0 0
BITMAP
60
60
60
F0
60
60
60
60
70
ENDCHAR
STARTCHAR u
ENCODING 117
SWIDTH 42 0
DWIDTH 7 0
BBX 7 6 0 0
BITMAP
FC
6C
6C
6C
7C
6E
ENDCHAR
STARTCHAR v
ENCODING 118
SWIDTH 42 0
DWIDTH 7 0
BBX 7 6 0 0
BITMAP
E6
64
64
38
38
10
ENDCHAR
STARTCHAR w
ENCODING 119
SWIDTH 42 0
DWIDTH 10 0
BBX 10 6 0 0
BITMAP
E4C0
6E80
6E80
7F00
3300
3300
ENDCHAR
STARTCHAR x
ENCODING 120
SWIDTH 42 0
DWIDTH 7 0
BBX 7 6 0 0
BITMAP
F6
74
38
38
4C
CE
ENDCHAR
STARTCHAR y
ENCODING 121
SWIDTH 42 0
DWIDTH 7 0
BBX 7 8 0 -2
BITMAP
E6
64
64
38
38
10
10
60
ENDCHAR
STARTCHAR z
ENCODING 122
SWIDTH 42 0
DWIDTH 6 0
BBX 5 6 1 0
BITMAP
F8
B8
30
60
E8
F8
ENDCHAR
STARTCHAR braceleft
ENCODING 123
SWIDTH 42 0
DWIDTH 4 0
BBX 3 11 1 -2
BITMAP
60
60
60
C0
C0
80
C0
C0
60
60
60
ENDCHAR
STARTCHAR bar
ENCODING 124
SWIDTH 42 0
DWIDTH 3 0
BBX 1 11 1 -2
BITMAP
80
80
80
80
80
80
80
80
80
80
80
ENDCHAR
STARTCHAR braceright
ENCODING 125
SWIDTH 42 0
DWIDTH 4 0
BBX 3 11 0 -2
BITMAP
C0
C0
C0
60
60
20
60
60
C0
C0
C0
ENDCHAR
STARTCHAR asciitilde
ENCODING 126
SWIDTH 42 0
DWIDTH 7 0
BBX 6 3 0 2
BITMAP
64
B4
98
ENDCHAR
STARTCHAR exclamdown
ENCODING 161
SWIDTH 42 0
DWIDTH 3 0
BBX 2 8 0 -2
BITMAP
C0
C0
40
40
C0
C0
C0
C0
ENDCHAR
STARTCHAR cent
ENCODING 162
SWIDTH 42 0
DWIDTH 7 0
BBX 6 9 0 0
BITMAP
10
7C
D4
D0
D0
D0
50
7C
10
ENDCHAR
STARTCHAR sterling
ENCODING 163
SWIDTH 42 0
DWIDTH 7 0
BBX 5 9 1 0
BITMAP
38
68
60
60
F0
60
40
F8
F8
ENDCHAR
STARTCHAR currency
ENCODING 164
SWIDTH 42 0
DWIDTH 7 0
BBX 7 9 0 0
BITMAP
82
7C
6C
44
44
44
6C
7C
82
ENDCHAR
STARTCHAR yen
ENCODING 165
SWIDTH 42 0
DWIDTH 7 0
BBX 8 9 0 0
BITMAP
F3
62
76
3C
7C
18
7C
18
3C
ENDCHAR
STARTCHAR brokenbar
ENCODING 166
SWIDTH 42 0
DWIDTH 3 0
BBX 1 11 1 -2
BITMAP
80
80
80
80
80
00
80
80
80
80
80
ENDCHAR
STARTCHAR section
ENCODING 167
SWIDTH 42 0
DWIDTH 7 0
BBX 5 11 1 -2
BITMAP
78
C8
C0
70
F8
D8
F8
70
18
98
F0
ENDCHAR
STARTCHAR dieresis
ENCODING 168
SWIDTH 42 0
DWIDTH 7 0
BBX 3 2 2 7
BITMAP
A0
A0
ENDCHAR
STARTCHAR copyright
ENCODING 169
SWIDTH 42 0
DWIDTH 9 0
BBX 8 9 1 0
BITMAP
3C
66
DB
B9
B1
B1
DB
66
3C
ENDCHAR
STARTCHAR ordfeminine
ENCODING 170
SWIDTH 42 0
DWIDTH 5 0
BBX 6 5 0 4
BITMAP
F8
18
78
D8
EC
ENDCHAR
STARTCHAR guillemotleft
ENCODING 171
SWIDTH 42 0
DWIDTH 6 0
BBX 5 6 0 0
BITMAP
28
58
F0
D0
48
28
ENDCHAR
STARTCHAR logicalnot
ENCODING 172
SWIDTH 42 0
DWIDTH 7 0
BBX 6 3 0 2
BITMAP
FC
04
04
ENDCHAR
STARTCHAR hyphen
ENCODING 173
SWIDTH 42 0
DWIDTH 3 0
BBX 3 2 0 2
BITMAP
E0
E0
ENDCHAR
STARTCHAR registered
ENCODING 174
SWIDTH 42 0
DWIDTH 7 0
BBX 6 6 0 3
BITMAP
78
CC
B4
B4
EC
78
ENDCHAR
STARTCHAR macron
ENCODING 175
SWIDTH 42 0
DWIDTH 7 0
BBX 3 1 2 8
BITMAP
E0
ENDCHAR
STARTCHAR degree
ENCODING 176
SWIDTH 42 0
DWIDTH 3 0
BBX 2 3 0 6
BITMAP
C0
C0
C0
ENDCHAR
STARTCHAR plusminus
ENCODING 177
SWIDTH 42 0
DWIDTH 7 0
BBX 7 8 0 0
BITMAP
10
10
10
FE
10
10
00
FE
ENDCHAR
STARTCHAR twosuperior
ENCODING 178
SWIDTH 42 0
DWIDTH 4 0
BBX 3 5 -6 4
BITMAP
E0
A0
40
C0
E0
ENDCHAR
STARTCHAR threesuperior
ENCODING 179
SWIDTH 42 0
DWIDTH 4 0
BBX 3 5 -6 4
BITMAP
E0
A0
40
A0
E0
ENDCHAR
STARTCHAR acute
ENCODING 180
SWIDTH 42 0
DWIDTH 7 0
BBX 3 2 2 7
BITMAP
60
80
ENDCHAR
STARTCHAR mu
ENCODING 181
SWIDTH 42 0
DWIDTH 8 0
BBX 7 8 0 -2
BITMAP
FC
6C
6C
6C
7C
7E
60
60
ENDCHAR
STARTCHAR paragraph
ENCODING 182
SWIDTH 42 0
DWIDTH 7 0
BBX 4 11 1 -2
BITMAP
70
F0
F0
F0
70
30
30
30
30
30
30
ENDCHAR
STARTCHAR periodcentered
ENCODING 183
SWIDTH 42 0
DWIDTH 7 0
BBX 1 2 3 2
BITMAP
80
80
ENDCHAR
STARTCHAR cedilla
ENCODING 184
SWIDTH 42 0
DWIDTH 7 0
BBX 2 2 3 -2
BITMAP
80
C0
ENDCHAR
STARTCHAR onesuperior
ENCODING 185
SWIDTH 42 0
DWIDTH 4 0
BBX 3 5 -6 4
BITMAP
C0
40
40
40
E0
ENDCHAR
STARTCHAR ordmasculine
ENCODING 186
SWIDTH 42 0
DWIDTH 5 0
BBX 5 5 0 4
BITMAP
70
D8
D8
D8
70
ENDCHAR
STARTCHAR guillemotright
ENCODING 187
SWIDTH 42 0
DWIDTH 6 0
BBX 5 6 1 0
BITMAP
A0
90
58
78
D0
A0
ENDCHAR
STARTCHAR onequarter
ENCODING 188
SWIDTH 42 0
DWIDTH 9 0
BBX 9 9 4 0
BITMAP
6380
2700
2600
2C00
7F00
1F00
3780
7100
E380
ENDCHAR
STARTCHAR onehalf
ENCODING 189
SWIDTH 42 0
DWIDTH 9 0
BBX 9 9 4 0
BITMAP
6380
2700
2600
2C00
7F80
1A80
3100
7300
E380
ENDCHAR
STARTCHAR threequarters
ENCODING 190
SWIDTH 42 0
DWIDTH 9 0
BBX 9 9 4 0
BITMAP
7380
5700
2600
5C00
7F00
1F00
3780
7100
E380
ENDCHAR
STARTCHAR questiondown
ENCODING 191
SWIDTH 42 0
DWIDTH 6 0
BBX 5 8 0 -2
BITMAP
30
30
30
20
40
C0
C8
78
ENDCHAR
STARTCHAR Agrave
ENCODING 192
SWIDTH 42 0
DWIDTH 9 0
BBX 9 11 0 0
BITMAP
1800
0400
0800
1C00
1C00
3E00
2600
3F00
4300
4300
C380
ENDCHAR
STARTCHAR Aacute
ENCODING 193
SWIDTH 42 0
DWIDTH 9 0
BBX 9 11 0 0
BITMAP
0C00
1000
0800
1C00
1C00
3E00
2600
3F00
4300
4300
C380
ENDCHAR
STARTCHAR Acircumflex
ENCODING 194
SWIDTH 42 0
DWIDTH 9 0
BBX 9 11 0 0
BITMAP
0C00
1200
0800
1C00
1C00
3E00
2600
3F00
4300
4300
C380
ENDCHAR
STARTCHAR Atilde
ENCODING 195
SWIDTH 42 0
DWIDTH 9 0
BBX 9 11 0 0
BITMAP
1E00
1E00
0800
1C00
1C00
3E00
2600
3F00
4300
4300
C380
ENDCHAR
STARTCHAR Adieresis
ENCODING 196
SWIDTH 42 0
DWIDTH 9 0
BBX 9 11 0 0
BITMAP
1400
1400
0800
1C00
1C00
3E00
2600
3F00
4300
4300
C380
ENDCHAR
STARTCHAR Aring
ENCODING 197
SWIDTH 42 0
DWIDTH 9 0
BBX 9 11 0 0
BITMAP
0C00
0C00
0800
1C00
1C00
3E00
2600
3F00
4300
4300
C380
ENDCHAR
STARTCHAR AE
ENCODING 198
SWIDTH 42 0
DWIDTH 11 0
BBX 10 9 0 0
BITMAP
0FC0
0E40
1E80
1780
2680
3E00
4600
C640
CFC0
ENDCHAR
STARTCHAR Ccedilla
ENCODING 199
SWIDTH 42 0
DWIDTH 8 0
BBX 7 11 0 -2
BITMAP
3E
62
C0
C0
C0
C0
C0
62
3E
10
18
ENDCHAR
STARTCHAR Egrave
ENCODING 200
SWIDTH 42 0
DWIDTH 7 0
BBX 6 11 0 0
BITMAP
60
10
FC
64
60
68
78
68
60
64
FC
ENDCHAR
STARTCHAR Eacute
ENCODING 201
SWIDTH 42 0
DWIDTH 7 0
BBX 6 11 0 0
BITMAP
18
20
FC
64
60
68
78
68
60
64
FC
ENDCHAR
STARTCHAR Ecircumflex
ENCODING 202
SWIDTH 42 0
DWIDTH 7 0
BBX 6 11 0 0
BITMAP
30
48
FC
64
60
68
78
68
60
64
FC
ENDCHAR
STARTCHAR Edieresis
ENCODING 203
SWIDTH 42 0
DWIDTH 7 0
BBX 6 11 0 0
BITMAP
28
28
FC
64
60
68
78
68
60
64
FC
ENDCHAR
STARTCHAR Igrave
ENCODING 204
SWIDTH 42 0
DWIDTH 4 0
BBX 4 11 0 0
BITMAP
C0
20
F0
60
60
60
60
60
60
60
F0
ENDCHAR
STARTCHAR Iacute
ENCODING 205
SWIDTH 42 0
DWIDTH 4 0
BBX 4 11 0 0
BITMAP
30
40
F0
60
60
60
60
60
60
60
F0
ENDCHAR
STARTCHAR Icircumflex
ENCODING 206
SWIDTH 42 0
DWIDTH 4 0
BBX 4 11 0 0
BITMAP
60
90
F0
60
60
60
60
60
60
60
F0
ENDCHAR
STARTCHAR Idieresis
ENCODING 207
SWIDTH 42 0
DWIDTH 4 0
BBX 4 11 0 0
BITMAP
A0
A0
F0
60
60
60
60
60
60
60
F0
ENDCHAR
STARTCHAR Eth
ENCODING 208
SWIDTH 42 0
DWIDTH 9 0
BBX 8 9 0 0
BITMAP
FC
66
63
63
FB
63
63
66
FC
ENDCHAR
STARTCHAR Ntilde
ENCODING 209
SWIDTH 42 0
DWIDTH 9 0
BBX 8 11 0 0
BITMAP
3C
3C
E7
62
72
72
5A
5E
4E
46
E6
ENDCHAR
STARTCHAR Ograve
ENCODING 210
SWIDTH 42 0
DWIDTH 9 0
BBX 8 11 0 0
BITMAP
30
08
3C
66
C3
C3
C3
C3
C3
66
3C
ENDCHAR
STARTCHAR Oacute
ENCODING 211
SWIDTH 42 0
DWIDTH 9 0
BBX 8 11 0 0
BITMAP
0C
10
3C
66
C3
C3
C3
C3
C3
66
3C
ENDCHAR
STARTCHAR Ocircumflex
ENCODING 212
SWIDTH 42 0
DWIDTH 9 0
BBX 8 11 0 0
BITMAP
18
24
3C
66
C3
C3
C3
C3
C3
66
3C
ENDCHAR
STARTCHAR Otilde
ENCODING 213
SWIDTH 42 0
DWIDTH 9 0
BBX 8 11 0 0
BITMAP
3C
3C
3C
66
C3
C3
C3
C3
C3
66
3C
ENDCHAR
STARTCHAR Odieresis
ENCODING 214
SWIDTH 42 0
DWIDTH 9 0
BBX 8 11 0 0
BITMAP
28
28
3C
66
C3
C3
C3
C3
C3
66
3C
ENDCHAR
STARTCHAR multiply
ENCODING 215
SWIDTH 42 0
DWIDTH 7 0
BBX 6 8 0 0
BITMAP
84
4C
48
30
30
48
C8
84
ENDCHAR
STARTCHAR Oslash
ENCODING 216
SWIDTH 42 0
DWIDTH 9 0
BBX 8 9 0 0
BITMAP
3D
66
C7
CB
DB
D3
E3
66
BC
ENDCHAR
STARTCHAR Ugrave
ENCODING 217
SWIDTH 42 0
DWIDTH 8 0
BBX 8 11 0 0
BITMAP
30
08
F7
62
62
62
62
62
62
62
3C
ENDCHAR
STARTCHAR Uacute
ENCODING 218
SWIDTH 42 0
DWIDTH 8 0
BBX 8 11 0 0
BITMAP
0C
10
F7
62
62
62
62
62
62
62
3C
ENDCHAR
STARTCHAR Ucircumflex
ENCODING 219
SWIDTH 42 0
DWIDTH 8 0
BBX 8 11 0 0
BITMAP
18
24
F7
62
62
62
62
62
62
62
3C
ENDCHAR
STARTCHAR Udieresis
ENCODING 220
SWIDTH 42 0
DWIDTH 8 0
BBX 8 11 0 0
BITMAP
28
28
F7
62
62
62
62
62
62
62
3C
ENDCHAR
STARTCHAR Yacute
ENCODING 221
SWIDTH 42 0
DWIDTH 8 0
BBX 8 11 0 0
BITMAP
0C
10
E3
62
72
34
38
18
18
18
3C
ENDCHAR
STARTCHAR Thorn
ENCODING 222
SWIDTH 42 0
DWIDTH 7 0
BBX 6 9 0 0
BITMAP
F0
60
78
6C
6C
6C
78
60
F0
ENDCHAR
STARTCHAR germandbls
ENCODING 223
SWIDTH 42 0
DWIDTH 8 0
BBX 7 9 0 0
BITMAP
38
6C
68
70
78
7C
6E
76
FC
ENDCHAR
STARTCHAR agrave
ENCODING 224
SWIDTH 42 0
DWIDTH 6 0
BBX 6 8 0 0
BITMAP
60
10
70
18
F8
D8
D8
6C
ENDCHAR
STARTCHAR aacute
ENCODING 225
SWIDTH 42 0
DWIDTH 6 0
BBX 6 8 0 0
BITMAP
18
20
70
18
F8
D8
D8
6C
ENDCHAR
STARTCHAR acircumflex
ENCODING 226
SWIDTH 42 0
DWIDTH 6 0
BBX 6 8 0 0
BITMAP
30
48
70
18
F8
D8
D8
6C
ENDCHAR
STARTCHAR atilde
ENCODING 227
SWIDTH 42 0
DWIDTH 6 0
BBX 6 8 0 0
BITMAP
78
78
70
18
F8
D8
D8
6C
ENDCHAR
STARTCHAR adieresis
ENCODING 228
SWIDTH 42 0
DWIDTH 6 0
BBX 6 8 0 0
BITMAP
50
50
70
18
F8
D8
D8
6C
ENDCHAR
STARTCHAR aring
ENCODING 229
SWIDTH 42 0
DWIDTH 6 0
BBX 6 8 0 0
BITMAP
30
30
70
18
F8
D8
D8
6C
ENDCHAR
STARTCHAR ae
ENCODING 230
SWIDTH 42 0
DWIDTH 9 0
BBX 9 6 0 0
BITMAP
7700
0D80
7F80
CC00
CE00
7780
ENDCHAR
STARTCHAR ccedilla
ENCODING 231
SWIDTH 42 0
DWIDTH 6 0
BBX 5 8 0 -2
BITMAP
78
C8
C0
C0
E0
78
20
30
ENDCHAR
STARTCHAR egrave
ENCODING 232
SWIDTH 42 0
DWIDTH 6 0
BBX 5 8 0 0
BITMAP
60
10
70
D8
F8
C0
E0
78
ENDCHAR
STARTCHAR eacute
ENCODING 233
SWIDTH 42 0
DWIDTH 6 0
BBX 5 8 0 0
BITMAP
30
40
70
D8
F8
C0
E0
78
ENDCHAR
STARTCHAR ecircumflex
ENCODING 234
SWIDTH 42 0
DWIDTH 6 0
BBX 5 8 0 0
BITMAP
30
48
70
D8
F8
C0
E0
78
ENDCHAR
STARTCHAR edieresis
ENCODING 235
SWIDTH 42 0
DWIDTH 6 0
BBX 5 8 0 0
BITMAP
50
50
70
D8
F8
C0
E0
78
ENDCHAR
STARTCHAR igrave
ENCODING 236
SWIDTH 42 0
DWIDTH 4 0
BBX 4 8 0 0
BITMAP
C0
20
E0
60
60
60
60
F0
ENDCHAR
STARTCHAR iacute
ENCODING 237
SWIDTH 42 0
DWIDTH 4 0
BBX 4 8 0 0
BITMAP
30
40
E0
60
60
60
60
F0
ENDCHAR
STARTCHAR icircumflex
ENCODING 238
SWIDTH 42 0
DWIDTH 4 0
BBX 4 8 0 0
BITMAP
60
90
E0
60
60
60
60
F0
ENDCHAR
STARTCHAR idieresis
ENCODING 239
SWIDTH 42 0
DWIDTH 4 0
BBX 4 8 0 0
BITMAP
A0
A0
E0
60
60
60
60
F0
ENDCHAR
STARTCHAR eth
ENCODING 240
SWIDTH 42 0
DWIDTH 7 0
BBX 6 9 1 0
BITMAP
F0
20
D8
78
CC
CC
CC
CC
78
ENDCHAR
STARTCHAR ntilde
ENCODING 241
SWIDTH 42 0
DWIDTH 7 0
BBX 7 8 0 0
BITMAP
78
78
EC
7C
6C
6C
6C
FE
ENDCHAR
STARTCHAR ograve
ENCODING 242
SWIDTH 42 0
DWIDTH 7 0
BBX 6 8 0 0
BITMAP
60
10
78
CC
CC
CC
CC
78
ENDCHAR
STARTCHAR oacute
ENCODING 243
SWIDTH 42 0
DWIDTH 7 0
BBX 6 8 0 0
BITMAP
18
20
78
CC
CC
CC
CC
78
ENDCHAR
STARTCHAR ocircumflex
ENCODING 244
SWIDTH 42 0
DWIDTH 7 0
BBX 6 8 0 0
BITMAP
30
48
78
CC
CC
CC
CC
78
ENDCHAR
STARTCHAR otilde
ENCODING 245
SWIDTH 42 0
DWIDTH 7 0
BBX 6 8 0 0
BITMAP
78
78
78
CC
CC
CC
CC
78
ENDCHAR
STARTCHAR odieresis
ENCODING 246
SWIDTH 42 0
DWIDTH 7 0
BBX 6 8 0 0
BITMAP
50
50
78
CC
CC
CC
CC
78
ENDCHAR
STARTCHAR divide
ENCODING 247
SWIDTH 42 0
DWIDTH 7 0
BBX 8 6 0 0
BITMAP
18
18
00
FF
18
18
ENDCHAR
STARTCHAR oslash
ENCODING 248
SWIDTH 42 0
DWIDTH 7 0
BBX 6 6 0 0
BITMAP
74
CC
DC
EC
CC
B8
ENDCHAR
STARTCHAR ugrave
ENCODING 249
SWIDTH 42 0
DWIDTH 7 0
BBX 7 8 0 0
BITMAP
30
08
FC
6C
6C
6C
7C
6E
ENDCHAR
STARTCHAR uacute
ENCODING 250
SWIDTH 42 0
DWIDTH 7 0
BBX 7 8 0 0
BITMAP
18
20
FC
6C
6C
6C
7C
6E
ENDCHAR
STARTCHAR ucircumflex
ENCODING 251
SWIDTH 42 0
DWIDTH 7 0
BBX 7 8 0 0
BITMAP
18
24
FC
6C
6C
6C
7C
6E
ENDCHAR
STARTCHAR udieresis
ENCODING 252
SWIDTH 42 0
DWIDTH 7 0
BBX 7 8 0 0
BITMAP
28
28
FC
6C
6C
6C
7C
6E
ENDCHAR
STARTCHAR yacute
ENCODING 253
SWIDTH 42 0
DWIDTH 7 0
BBX 7 10 0 -2
BITMAP
18
20
E6
64
64
38
38
10
10
60
ENDCHAR
STARTCHAR thorn
ENCODING 254
SWIDTH 42 0
DWIDTH 7 0
BBX 7 11 0 -2
BITMAP
E0
60
60
6C
7E
66
66
66
7C
60
F0
ENDCHAR
STARTCHAR ydieresis
ENCODING 255
SWIDTH 42 0
DWIDTH 7 0
BBX 7 10 0 -2
BITMAP
28
28
E6
64
64
38
38
10
10
60
ENDCHAR
STARTCHAR fl
ENCODING -1
SWIDTH 42 0
DWIDTH 7 0
BBX 7 9 0 0
BITMAP
3C
6C
6C
EC
6C
6C
6C
6C
FE
ENDCHAR
STARTCHAR endash
ENCODING -1
SWIDTH 42 0
DWIDTH 5 0
BBX 5 1 0 3
BITMAP
F8
ENDCHAR
STARTCHAR dagger
ENCODING -1
SWIDTH 42 0
DWIDTH 7 0
BBX 6 11 0 -2
BITMAP
30
30
B4
FC
30
30
30
30
30
30
30
ENDCHAR
STARTCHAR Zcaron
ENCODING -1
SWIDTH 42 0
DWIDTH 7 0
BBX 6 11 0 0
BITMAP
48
30
FC
8C
18
38
30
70
60
C4
FC
ENDCHAR
STARTCHAR oe
ENCODING -1
SWIDTH 42 0
DWIDTH 10 0
BBX 9 6 1 0
BITMAP
7300
CD80
CF80
CC00
CE00
7780
ENDCHAR
STARTCHAR Ydieresis
ENCODING -1
SWIDTH 42 0
DWIDTH 8 0
BBX 8 11 0 0
BITMAP
28
28
E3
62
72
34
38
18
18
18
3C
ENDCHAR
STARTCHAR dotlessi
ENCODING -1
SWIDTH 42 0
DWIDTH 4 0
BBX 4 6 0 0
BITMAP
E0
60
60
60
60
F0
ENDCHAR
STARTCHAR lslash
ENCODING -1
SWIDTH 42 0
DWIDTH 4 0
BBX 5 9 1 0
BITMAP
70
30
30
38
70
B0
30
30
78
ENDCHAR
STARTCHAR Lslash
ENCODING -1
SWIDTH 42 0
DWIDTH 6 0
BBX 7 9 0 0
BITMAP
F0
60
60
70
E0
60
60
62
FE
ENDCHAR
STARTCHAR daggerdbl
ENCODING -1
SWIDTH 42 0
DWIDTH 7 0
BBX 6 11 0 -2
BITMAP
30
30
B4
FC
30
30
B4
FC
30
30
30
ENDCHAR
STARTCHAR fi
ENCODING -1
SWIDTH 42 0
DWIDTH 7 0
BBX 7 9 0 0
BITMAP
7C
7C
60
FC
6C
6C
6C
6C
EE
ENDCHAR
STARTCHAR guilsinglright
ENCODING -1
SWIDTH 42 0
DWIDTH 4 0
BBX 3 6 0 0
BITMAP
80
40
60
60
40
80
ENDCHAR
STARTCHAR OE
ENCODING -1
SWIDTH 42 0
DWIDTH 11 0
BBX 11 9 0 0
BITMAP
3FE0
6620
C600
C640
C7C0
C640
C600
6620
3FE0
ENDCHAR
STARTCHAR emdash
ENCODING -1
SWIDTH 42 0
DWIDTH 11 0
BBX 10 1 1 3
BITMAP
FFC0
ENDCHAR
STARTCHAR caron
ENCODING -1
SWIDTH 42 0
DWIDTH 7 0
BBX 4 2 1 7
BITMAP
90
60
ENDCHAR
STARTCHAR ogonek
ENCODING -1
SWIDTH 42 0
DWIDTH 7 0
BBX 2 2 3 -2
BITMAP
C0
C0
ENDCHAR
STARTCHAR hungarumlaut
ENCODING -1
SWIDTH 42 0
DWIDTH 7 0
BBX 4 2 2 7
BITMAP
50
A0
ENDCHAR
STARTCHAR guilsinglleft
ENCODING -1
SWIDTH 42 0
DWIDTH 4 0
BBX 3 6 0 0
BITMAP
20
40
C0
C0
40
20
ENDCHAR
STARTCHAR dotaccent
ENCODING -1
SWIDTH 42 0
DWIDTH 7 0
BBX 1 2 3 7
BITMAP
80
80
ENDCHAR
STARTCHAR breve
ENCODING -1
SWIDTH 42 0
DWIDTH 7 0
BBX 4 2 1 7
BITMAP
90
60
ENDCHAR
STARTCHAR bullet
ENCODING -1
SWIDTH 42 0
DWIDTH 7 0
BBX 4 4 1 2
BITMAP
60
F0
F0
60
ENDCHAR
STARTCHAR tilde
ENCODING -1
SWIDTH 42 0
DWIDTH 7 0
BBX 4 2 1 7
BITMAP
F0
F0
ENDCHAR
STARTCHAR circumflex
ENCODING -1
SWIDTH 42 0
DWIDTH 7 0
BBX 4 2 1 7
BITMAP
60
90
ENDCHAR
STARTCHAR quotedblleft
ENCODING -1
SWIDTH 42 0
DWIDTH 5 0
BBX 4 4 1 5
BITMAP
50
E0
F0
F0
ENDCHAR
STARTCHAR quotesingle
ENCODING -1
SWIDTH 42 0
DWIDTH 3 0
BBX 3 4 0 5
BITMAP
E0
E0
40
40
ENDCHAR
STARTCHAR scaron
ENCODING -1
SWIDTH 42 0
DWIDTH 6 0
BBX 5 8 0 0
BITMAP
90
60
70
D0
F0
78
98
F0
ENDCHAR
STARTCHAR ring
ENCODING -1
SWIDTH 42 0
DWIDTH 7 0
BBX 2 2 2 7
BITMAP
C0
C0
ENDCHAR
STARTCHAR quotesinglbase
ENCODING -1
SWIDTH 42 0
DWIDTH 3 0
BBX 2 4 0 -2
BITMAP
C0
C0
C0
C0
ENDCHAR
STARTCHAR florin
ENCODING -1
SWIDTH 42 0
DWIDTH 7 0
BBX 6 11 1 -2
BITMAP
1C
34
20
60
F0
60
60
60
C0
C0
C0
ENDCHAR
STARTCHAR trademark
ENCODING -1
SWIDTH 42 0
DWIDTH 11 0
BBX 11 5 0 4
BITMAP
FE60
B7C0
33C0
33C0
7EE0
ENDCHAR
STARTCHAR fraction
ENCODING -1
SWIDTH 42 0
DWIDTH 1 0
BBX 9 9 -1 0
BITMAP
0380
0700
0600
0C00
1C00
1800
3000
7000
E000
ENDCHAR
STARTCHAR grave
ENCODING -1
SWIDTH 42 0
DWIDTH 7 0
BBX 3 2 2 7
BITMAP
C0
20
ENDCHAR
STARTCHAR perthousand
ENCODING -1
SWIDTH 42 0
DWIDTH 13 0
BBX 12 9 0 0
BITMAP
6300
F200
F400
6800
1E60
1FF0
2FF0
4FF0
C660
ENDCHAR
STARTCHAR ellipsis
ENCODING -1
SWIDTH 42 0
DWIDTH 11 0
BBX 8 2 2 0
BITMAP
DB
DB
ENDCHAR
STARTCHAR quotedblright
ENCODING -1
SWIDTH 42 0
DWIDTH 5 0
BBX 4 4 1 5
BITMAP
F0
F0
F0
A0
ENDCHAR
STARTCHAR Scaron
ENCODING -1
SWIDTH 42 0
DWIDTH 6 0
BBX 6 11 0 0
BITMAP
48
30
78
C8
C0
E0
78
1C
0C
8C
F8
ENDCHAR
STARTCHAR quotedblbase
ENCODING -1
SWIDTH 42 0
DWIDTH 5 0
BBX 4 4 1 -2
BITMAP
F0
F0
F0
F0
ENDCHAR
STARTCHAR zcaron
ENCODING -1
SWIDTH 42 0
DWIDTH 6 0
BBX 5 8 1 0
BITMAP
48
30
F8
B8
30
60
E8
F8
ENDCHAR
ENDFONT
